<?xml version="1.0" encoding="utf-8"?>
<!-- Generator: Adobe Illustrator 16.0.0, SVG Export Plug-In . SVG Version: 6.00 Build 0)  -->
<!DOCTYPE svg PUBLIC "-//W3C//DTD SVG 1.1//EN" "http://www.w3.org/Graphics/SVG/1.1/DTD/svg11.dtd" [
	<!ENTITY ns_flows "http://ns.adobe.com/Flows/1.0/">
	<!ENTITY ns_extend "http://ns.adobe.com/Extensibility/1.0/">
	<!ENTITY ns_ai "http://ns.adobe.com/AdobeIllustrator/10.0/">
	<!ENTITY ns_graphs "http://ns.adobe.com/Graphs/1.0/">
]>
<svg version="1.1" id="Layer_1" xmlns:x="&ns_extend;" xmlns:i="&ns_ai;" xmlns:graph="&ns_graphs;"
	 xmlns="http://www.w3.org/2000/svg" xmlns:xlink="http://www.w3.org/1999/xlink" xmlns:a="http://ns.adobe.com/AdobeSVGViewerExtensions/3.0/"
	 x="0px" y="0px" width="80px" height="80px" viewBox="0 0 80 80" enable-background="new 0 0 80 80" xml:space="preserve">
<rect fill="#E8E8E8" width="80" height="80"/>
<g>
	<path fill="#A5A5A5" d="M62.352,24.183c-2.218-0.08-4.094,0.361-5.953-0.78c-5.075-3.099-10.265-6.019-15.383-9.054
		c-0.756-0.447-1.298-0.43-2.045,0.007c-5.031,2.952-10.16,5.757-15.126,8.816c-1.994,1.223-3.97,1.034-6.345,0.98
		c0.438-0.326,0.638-0.504,0.865-0.639c5.969-3.437,11.941-6.874,17.909-10.325c0.562-0.324,1.005-0.434,1.64-0.101
		c1.312,0.687,2.666,0.598,4.03,0.012c0.371-0.161,0.97-0.197,1.307-0.006c6.137,3.473,12.23,6.99,18.335,10.499
		C61.755,23.696,61.916,23.848,62.352,24.183z"/>
	<path fill="#A5A5A5" d="M43.667,7.499c0,2.116-1.668,3.778-3.798,3.785c-2.14,0.003-3.803-1.646-3.81-3.767
		c-0.012-2.181,1.667-3.861,3.852-3.844C42.021,3.689,43.672,5.381,43.667,7.499z"/>
	<path fill="#A5A5A5" d="M68.18,27.847c0-0.407,0-0.81,0-1.388c-0.533,0-0.869,0-1.201-0.003c-17.977,0-35.95,0.011-53.93-0.021
		c-0.994,0-1.259,0.282-1.253,1.271c0.031,12.622,0.031,25.256,0,37.886c-0.006,0.96,0.313,1.35,1.206,1.635
		c8.955,2.865,17.888,5.781,26.843,8.643c0.557,0.178,1.275,0.17,1.83-0.021c8.447-2.84,16.866-5.742,25.317-8.58
		c0.874-0.302,1.213-0.666,1.213-1.648C68.166,53.021,68.18,40.438,68.18,27.847z"/>
	<g>
		<path fill="#FFFFFF" d="M21.704,35.463h14.644v4.434h-9.209v5.483h8.601v4.413h-8.601v9.624h-5.435V35.463z"/>
		<path fill="#FFFFFF" d="M58.014,58.743c-1.002,0.507-3.242,1.04-6.16,1.04c-8.278,0-12.541-5.156-12.541-11.982
			c0-8.18,5.822-12.735,13.08-12.735c2.816,0,4.939,0.579,5.897,1.068l-1.092,4.297c-1.11-0.46-2.64-0.878-4.56-0.878
			c-4.291,0-7.643,2.595-7.643,7.925c0,4.799,2.84,7.82,7.675,7.82c1.634,0,3.458-0.355,4.526-0.785L58.014,58.743z"/>
	</g>
</g>
</svg>
